<svg xmlns="http://www.w3.org/2000/svg" xmlns:xlink="http://www.w3.org/1999/xlink" version="1.1" width="1000" height="1000" viewBox="0 0 1000 1000" xml:space="preserve">
<desc>Created with Fabric.js 3.5.0</desc>
<defs>
</defs>
<rect x="0" y="0" width="100%" height="100%" fill="rgba(255,255,255,0)"/>
<g transform="matrix(1.9591 0 0 1.9591 500 500)" id="487575">
<path style="stroke: none; stroke-width: 0; stroke-dasharray: none; stroke-linecap: butt; stroke-dashoffset: 0; stroke-linejoin: miter; stroke-miterlimit: 4; is-custom-font: none; font-file-url: none; fill: rgb(33,79,17); fill-rule: nonzero; opacity: 1;" vector-effect="non-scaling-stroke" transform=" translate(-263.9875, -255.9933)" d="M 463.5 224 H 472 c 13.3 0 24 -10.7 24 -24 V 72 c 0 -9.7 -5.8 -18.5 -14.8 -22.2 s -19.3 -1.7 -26.2 5.2 L 413.4 96.6 c -87.6 -86.5 -228.7 -86.2 -315.8 1 c -87.5 87.5 -87.5 229.3 0 316.8 s 229.3 87.5 316.8 0 c 12.5 -12.5 12.5 -32.8 0 -45.3 s -32.8 -12.5 -45.3 0 c -62.5 62.5 -163.8 62.5 -226.3 0 s -62.5 -163.8 0 -226.3 c 62.2 -62.2 162.7 -62.5 225.3 -1 L 327 183 c -6.9 6.9 -8.9 17.2 -5.2 26.2 s 12.5 14.8 22.2 14.8 H 463.5 z" stroke-linecap="round"/>
</g>
<g transform="matrix(1 0 0 1 481.3287 561.6285)" style="" id="656806">
		
<path xml:space="preserve" font-family="Anton" font-size="500" font-style="normal" font-weight="normal" style="stroke: none; stroke-width: 0; stroke-dasharray: none; stroke-linecap: butt; stroke-dashoffset: 0; stroke-linejoin: miter; stroke-miterlimit: 4; is-custom-font: none; font-file-url: none; fill: rgb(33,79,17); fill-rule: nonzero; opacity: 1; white-space: pre;" d="M114.50 157.07L-108.40 157.07L-108.40 136.56Q-108.40 104.58-98.51 79.07Q-88.62 53.55-73.00 31.70Q-57.37 9.85-40.04-11.14L-40.04-11.14Q-23.19-31.65-7.93-53.26Q7.32-74.86 16.97-100.13Q26.61-125.40 26.61-156.89L26.61-156.89Q26.61-172.03 22.09-182.90Q17.58-193.76 3.42-193.76L3.42-193.76Q-18.07-193.76-18.07-155.43L-18.07-155.43L-18.07-102.94L-108.40-102.94Q-108.64-108.56-109.01-115.64Q-109.38-122.72-109.38-129.31L-109.38-129.31Q-109.38-175.69-99.61-208.04Q-89.84-240.39-65.06-257.36Q-40.28-274.33 4.64-274.33L4.64-274.33Q58.11-274.33 87.77-244.30Q117.43-214.27 117.43-158.60L117.43-158.60Q117.43-120.76 107.67-92.32Q97.90-63.88 81.79-40.56Q65.67-17.25 46.39 5.95L46.39 5.95Q32.71 22.30 19.90 39.39Q7.08 56.48-2.69 76.02L-2.69 76.02L114.50 76.02L114.50 157.07Z"/></g>
</svg>