<?xml version="1.0" standalone="no"?>
<!DOCTYPE svg PUBLIC "-//W3C//DTD SVG 20010904//EN"
 "http://www.w3.org/TR/2001/REC-SVG-20010904/DTD/svg10.dtd">
<svg version="1.0" xmlns="http://www.w3.org/2000/svg"
 width="1024.000000pt" height="1024.000000pt" viewBox="0 0 1024.000000 1024.000000"
 preserveAspectRatio="xMidYMid meet">
<metadata>
Created by potrace 1.14, written by Peter Selinger 2001-2017
</metadata>
<g transform="translate(0.000000,1024.000000) scale(0.100000,-0.100000)"
fill="#000000" stroke="none">
<path d="M0 5120 l0 -5120 5120 0 5120 0 0 5120 0 5120 -5120 0 -5120 0 0
-5120z m5115 3310 c-3 -5 0 -7 8 -4 14 5 107 -80 107 -97 0 -4 30 -45 68 -92
37 -46 78 -99 92 -117 14 -18 45 -58 70 -90 25 -32 79 -103 121 -157 41 -54
113 -147 160 -208 47 -60 121 -157 165 -215 44 -58 106 -139 138 -180 32 -41
113 -146 179 -234 67 -87 158 -205 202 -262 44 -56 112 -144 150 -195 39 -51
106 -138 150 -195 44 -57 109 -142 145 -190 57 -75 185 -241 208 -269 5 -6 43
-56 86 -110 42 -55 104 -136 138 -180 359 -464 357 -460 326 -518 -6 -12 -83
-118 -172 -235 -89 -117 -168 -223 -176 -235 -8 -12 -68 -94 -134 -182 -65
-88 -140 -188 -165 -223 -25 -35 -55 -76 -67 -90 -11 -15 -107 -142 -212 -282
-105 -140 -218 -291 -252 -335 -34 -44 -169 -224 -301 -400 -132 -176 -246
-329 -255 -340 -72 -96 -223 -300 -284 -383 -41 -57 -106 -144 -144 -195 -39
-51 -122 -162 -187 -247 -64 -85 -128 -161 -142 -169 -47 -25 -40 -32 -445
509 -88 118 -178 238 -199 267 -53 73 -218 293 -450 601 -109 145 -205 273
-213 285 -8 12 -204 274 -434 582 -585 781 -589 786 -606 811 -8 12 -57 77
-108 145 -77 103 -92 128 -92 159 0 32 21 64 172 261 211 276 302 395 402 524
42 55 109 142 149 194 168 220 329 430 353 459 11 12 48 61 84 108 36 47 94
122 130 168 36 46 74 96 85 111 11 16 47 63 80 105 33 43 92 119 130 170 39
50 88 115 111 143 22 29 77 101 123 161 45 59 104 137 131 171 27 35 78 101
113 147 35 46 119 155 186 243 68 88 135 176 150 195 36 48 109 120 122 120 5
0 7 -4 4 -10z m3355 -6611 l0 -50 -53 2 c-36 2 -54 7 -54 15 0 7 4 11 8 8 4
-2 11 2 16 9 4 7 16 17 26 20 11 4 15 12 11 18 -5 8 -3 9 5 5 8 -5 14 0 18 13
9 36 23 12 23 -40z"/>
</g>
</svg>
